<?xml version="1.0" standalone="yes"?>
<svg xmlns="http://www.w3.org/2000/svg" width="96" height="96">
<path style="fill:#010101; stroke:none;" d="M0 0L0 81L1 81L19 38L21 38L27 51L47 8L49 8L69 51L75 38L77 38L95 81L96 81L96 0L0 0z"/>
<path style="fill:#2bb684; stroke:none;" d="M47 8L35 36C41.421 39.9632 41.7709 36.1975 48 36.1975C54.229 36.1975 54.579 39.9632 61 36L49 8L47 8z"/>
<path style="fill:#01ff01; stroke:none;" d="M56 24L57 25L56 24z"/>
<path style="fill:#60c978; stroke:none;" d="M34 35L27 51L21 38L19 38L0 84L96 84L77 38L75 38L70 52L69 52L62 35L48 35.6327L34 35z"/>
<path style="fill:#2bb684; stroke:none;" d="M32 39L33 40L32 39M64 41L65 42L64 41z"/>
<path style="fill:#01ff01; stroke:none;" d="M65 43L66 44L65 43M23 44L24 45L23 44M79 44L80 45L79 44z"/>
<path style="fill:#7fff7f; stroke:none;" d="M13 51L14 52L13 51M69 51L70 52L69 51z"/>
<path style="fill:#01ff01; stroke:none;" d="M89 67L90 68L89 67z"/>
<path style="fill:#7fff7f; stroke:none;" d="M3 74L4 75L3 74z"/>
<path style="fill:#010101; stroke:none;" d="M0 84L0 96L96 96L96 84L0 84z"/>
</svg>
